<svg width="61" height="67" viewBox="0 0 61 67" fill="none" xmlns="http://www.w3.org/2000/svg">
<g clip-path="url(#clip0_74_9)">
<path d="M56.9315 57.0084C57.0165 57.4716 57.1172 57.9475 57.2172 58.4096C57.0074 58.2872 56.7925 58.1692 56.5708 58.0584C56.1201 57.833 55.6303 57.75 55.2 57.75C54.7914 57.75 54.3291 57.8249 53.8977 58.0253C53.2959 58.2718 52.8237 58.6819 52.5205 59.2241C52.2258 59.7511 52.147 60.3014 52.1378 60.7438C52.1242 61.3994 52.2788 62.1526 52.373 62.6112C52.3939 62.7128 52.4118 62.7999 52.4242 62.8683L52.4294 62.897L52.4357 62.9254C52.5062 63.2427 52.5569 63.5354 52.5846 63.8095C51.8445 63.5099 51.1179 63.4238 50.4629 63.4127C50.0263 63.4053 49.5982 63.4314 49.2295 63.4545L49.1835 63.4574C48.8164 63.4805 48.5056 63.5 48.2 63.5C46.8673 63.5 45.4471 63.5972 44.1075 63.6888C43.4894 63.7311 42.8885 63.7722 42.3212 63.8021L42.3144 63.8024C38.9308 63.9958 35.4494 64.0952 32.0325 64.1927L31.7572 64.2006L31.7498 64.2008L31.7423 64.2011L27.8423 64.3511L23.9423 64.5011L23.9319 64.5015C22.8151 64.5523 21.7011 64.6283 20.6068 64.7029L20.598 64.7035C19.7009 64.7646 18.817 64.8249 17.937 64.8716C17.5153 64.5063 17.1031 64.1703 16.7188 63.8591C16.6632 63.8142 16.6084 63.7698 16.5544 63.7261C16.2857 63.5088 16.0352 63.3063 15.8 63.1104V63.1083V63.0985V63.0887V63.079V63.0692V63.0594V63.0496V63.0398V63.03V63.0202V63.0105V63.0007V62.9909V62.9811V62.9714V62.9616V62.9518V62.9421V62.9323V62.9225V62.9128V62.903V62.8933V62.8835V62.8738V62.864V62.8543V62.8446V62.8348V62.8251V62.8154V62.8056V62.7959V62.7862V62.7764V62.7667V62.757V62.7473V62.7376V62.7279V62.7181V62.7084V62.6987V62.689V62.6793V62.6696V62.6599V62.6502V62.6405V62.6309V62.6212V62.6115V62.6018V62.5921V62.5824V62.5728V62.5631V62.5534V62.5438V62.5341V62.5244V62.5148V62.5051V62.4954V62.4858V62.4761V62.4665V62.4568V62.4472V62.4375V62.4279V62.4183V62.4086V62.399V62.3894V62.3797V62.3701V62.3605V62.3508V62.3412V62.3316V62.322V62.3124V62.3028V62.2932V62.2836V62.2739V62.2643V62.2547V62.2451V62.2355V62.226V62.2164V62.2068V62.1972V62.1876V62.178V62.1684V62.1589V62.1493V62.1397V62.1301V62.1206V62.111V62.1014V62.0919V62.0823V62.0728V62.0632V62.0537V62.0441V62.0346V62.025V62.0155V62.0059V61.9964V61.9869V61.9773V61.9678V61.9583V61.9487V61.9392V61.9297V61.9202V61.9107V61.9011V61.8916V61.8821V61.8726V61.8631V61.8536V61.8441V61.8346V61.8251V61.8156V61.8061V61.7966V61.7871V61.7776V61.7682V61.7587V61.7492V61.7397V61.7302V61.7208V61.7113V61.7018V61.6924V61.6829V61.6734V61.664V61.6545V61.6451V61.6356V61.6262V61.6167V61.6073V61.5978V61.5884V61.579V61.5695V61.5601V61.5507V61.5412V61.5318V61.5224V61.513V61.5035V61.4941V61.4847V61.4753V61.4659V61.4565V61.4471V61.4377V61.4283V61.4189V61.4095V61.4001V61.3907V61.3813V61.3719V61.3625V61.3531V61.3438V61.3344V61.325V61.3156V61.3063V61.2969V61.2875V61.2782V61.2688V61.2594V61.2501V61.2407V61.2314V61.222V61.2127V61.2033V61.194V61.1846V61.1753V61.166V61.1566V61.1473V61.138V61.1286V61.1193V61.11V61.1007V61.0913V61.082V61.0727V61.0634V61.0541V61.0448V61.0355V61.0262V61.0169V61.0076V60.9983V60.989V60.9797V60.9704V60.9611V60.9518V60.9426V60.9333V60.924V60.9147V60.9054V60.8962V60.8869V60.8776V60.8684V60.8591V60.8499V60.8406V60.8313V60.8221V60.8128V60.8036V60.7943V60.7851V60.7759V60.7666V60.7574V60.7481V60.7389V60.7297V60.7205V60.7112V60.702V60.6928V60.6836V60.6744V60.6651V60.6559V60.6467V60.6375V60.6283V60.6191V60.6099V60.6007V60.5915V60.5823V60.5731V60.5639V60.5548V60.5456V60.5364V60.5272V60.518V60.5089V60.4997V60.4905V60.4814V60.4722V60.463V60.4539V60.4447V60.4355V60.4264V60.4172V60.4081V60.3989V60.3898V60.3807V60.3715V60.3624V60.3532V60.3441V60.335V60.3258V60.3167V60.3076V60.2985V60.2894V60.2802V60.2711V60.262V60.2529V60.2438V60.2347V60.2256V60.2165V60.2074V60.1983V60.1892V60.1801V60.171V60.1619V60.1528V60.1437V60.1347V60.1256V60.1165V60.1074V60.0984V60.0893V60.0802V60.0712V60.0621V60.053V60.044V60.0349V60.0259V60.0168V60.0078V59.9987V59.9897V59.9806V59.9716V59.9626V59.9535V59.9445V59.9355V59.9264V59.9174V59.9084V59.8994V59.8904V59.8813V59.8723V59.8633V59.8543V59.8453V59.8363V59.8273V59.8183V59.8093V59.8003V59.7913V59.7823V59.7733V59.7643V59.7553V59.7464V59.7374V59.7284V59.7194V59.7104V59.7015V59.6925V59.6835V59.6746V59.6656V59.6567V59.6477V59.6387V59.6298V59.6208V59.6119V59.6029V59.594V59.5851V59.5761V59.5672V59.5583V59.5493V59.5404V59.5315V59.5225V59.5136V59.5047V59.4958V59.4869V59.4779V59.469V59.4601V59.4512V59.4423V59.4334V59.4245V59.4156V59.4067V59.3978V59.3889V59.38V59.3712V59.3623V59.3534V59.3445V59.3356V59.3268V59.3179V59.309V59.3002V59.2913V59.2824V59.2736V59.2647V59.2558V59.247V59.2381V59.2293V59.2204V59.2116V59.2028V59.1939V59.1851V59.1762V59.1674V59.1586V59.1497V59.1409V59.1321V59.1233V59.1145V59.1056V59.0968V59.088V59.0792V59.0704V59.0616V59.0528V59.044V59.0352V59.0264V59.0176V59.0088V59C15.8 58.611 15.7282 58.2181 15.6833 57.9725C15.6807 57.9584 15.6782 57.9448 15.6758 57.9317C15.6258 57.6567 15.6047 57.5201 15.6007 57.4308C15.712 55.3608 14.8959 53.8278 13.9 52.5L13.8707 52.4609L13.8389 52.4238C13.6115 52.1586 13.4081 51.8581 13.1797 51.4974C13.1338 51.4249 13.0852 51.3472 13.0345 51.2661C12.8535 50.9765 12.6445 50.6423 12.4254 50.3349C12.0223 49.7564 12.0343 49.3016 12.2777 48.8861C12.6808 48.2537 13.0922 47.6582 13.5326 47.0208C13.8531 46.5569 14.1889 46.0708 14.5481 45.5321L15.0309 44.8078L14.6841 44.1142C14.6818 44.1018 14.6791 44.0872 14.6758 44.0692C14.6741 44.0596 14.6721 44.0485 14.6699 44.0361C14.6492 43.9193 14.6076 43.6851 14.5291 43.4441C13.163 39.0249 11.7319 34.6679 10.2929 30.2867C9.93781 29.2057 9.58226 28.1232 9.22709 27.038C6.7996 19.4643 4.36921 11.8814 1.8466 4.29713C10.0693 3.35415 18.2287 2.48649 26.5208 1.69405L26.5201 1.69624L26.5052 1.87543C26.3462 3.78319 27.6139 5.04122 28.3364 5.75827C28.3721 5.79372 28.4065 5.82784 28.4393 5.86066L28.4705 5.89183L28.5035 5.92111C30.3177 7.53379 32.5591 8.98948 35.3811 9.34455C38.75 12.2457 41.9111 15.5014 45.1031 18.7888C45.5098 19.2077 45.9171 19.6272 46.3253 20.0464L46.3323 20.0536L46.3393 20.0607C47.7754 21.4967 49.0996 22.9921 50.4578 24.526C51.1504 25.3081 51.8519 26.1002 52.5815 26.8996C54.6651 29.2812 56.6866 31.6936 58.3135 34.272C58.4962 34.5928 58.6583 34.8936 58.8293 35.2112L58.8326 35.2174C58.9056 35.3529 58.9803 35.4915 59.0579 35.634C58.3804 37.7355 58.4387 39.8166 58.9354 41.8262C59.237 43.3804 58.8662 44.9327 58.1293 46.5908L58.1178 46.6166L58.1073 46.6429C57.9027 47.1543 57.6991 47.6888 57.5008 48.2094L57.4983 48.216C57.2974 48.7433 57.1019 49.2565 56.9073 49.7429L56.8871 49.7934L56.8706 49.8452C56.048 52.4304 56.4197 54.8486 56.9315 57.0084Z" fill="#F57F20" stroke="white" stroke-width="3"/>
</g>
<defs>
<clipPath id="clip0_74_9">
<rect width="61" height="67" fill="white"/>
</clipPath>
</defs>
</svg>
